<?xml version="1.0" encoding="utf-8"?>
<svg viewBox="0 0 1024 1024" xmlns="http://www.w3.org/2000/svg">
  <path d="M 248.002 259 C 424.551 259 601.101 259 783 259 C 783 435.55 783 612.1 783 794 C 606.779 794 430.56 794 249 794 C 248.834 720.666 248.002 300.745 248.002 259 Z M 295.911 301.21 C 295.497 346.477 299 740 300 740 C 291.666 740.029 624.2 740 735.093 740.01 C 735.4 740 735.093 450.4 735.093 301.21 C 679.096 301.21 623.1 301.21 565.409 301.21 C 565.077 311.577 564.749 321.943 564.411 332.623 C 530.155 332.623 495.899 332.623 460.605 332.623 C 460.275 322.258 459.9 300 459.6 300 C 372.9 300 351.6 300 300 300 L 295.9 300 Z" style=""/>
  <path d="M0 0 C34.65 0 69.3 0 105 0 C105 85.47 105 170.94 105 259 C70.35 259 35.7 259 0 259 C0 173.53 0 88.06 0 0 Z " transform="matrix(1, 0, 0, 1, 461, 440.99999999999994)" style=""/>
  <path d="M 614 353 C 639.08 353 664.159 353 689.999 353 C 690.029 384.319 689.17 681.481 689 700 C 664.249 700 639.5 700 614 700 C 614 585.49 614 470.98 614 353 Z" style=""/>
  <path d="M 341 353 C 366.08 353 391.16 353 417 353 C 416.893 396.645 415.973 696 414.946 699 C 390.544 699.33 366.142 699.66 341 700 C 341 585.49 341 470.98 341 353 Z" style=""/>
  <path d="M 417 352.5 L 417.501 352.5 L 417.5 353.001 C 417.393 396.646 417.28 440.292 417.161 483.937 C 417.145 489.085 417.131 494.234 417.118 499.382 C 417.115 500.407 417.112 501.433 417.11 502.488 C 417.063 519.101 417.023 535.715 416.98 552.329 C 416.941 569.366 416.895 586.403 416.845 603.44 C 416.816 613.96 416.79 624.479 416.764 634.999 C 416.749 642.205 416.73 649.412 416.708 656.618 C 416.692 660.78 416.681 664.941 416.674 669.104 C 416.668 672.91 416.658 676.717 416.643 680.524 C 416.639 681.904 416.636 683.285 416.635 684.665 C 416.634 686.537 416.623 688.406 416.614 690.276 C 416.612 691.317 416.608 692.382 416.605 693.454 C 416.539 694.74 416.504 695.421 416.351 696.155 C 416.199 696.882 415.933 697.662 415.419 699.162 L 415.305 699.495 L 414.953 699.5 C 390.551 699.83 366.149 700.16 341.007 700.5 L 340.5 700.507 C 340.5 585.997 340.5 470.98 340.5 353 L 340.5 352.5 C 365.58 352.5 391.16 352.5 417 352.5 Z M 341.5 699.493 C 366.459 699.156 390.185 698.835 414.587 698.505 C 415.024 697.227 415.233 696.618 415.372 695.952 C 415.509 695.293 415.54 694.7 415.606 693.414 C 415.609 692.347 415.612 691.314 415.614 690.273 C 415.623 688.403 415.634 686.533 415.635 684.665 C 415.636 683.283 415.639 681.902 415.643 680.521 C 415.658 676.715 415.668 672.908 415.674 669.102 C 415.681 664.939 415.692 660.777 415.708 656.614 C 415.73 649.408 415.749 642.203 415.764 634.997 C 415.79 624.477 415.816 613.958 415.845 603.438 C 415.895 586.401 415.941 569.364 415.98 552.327 C 416.023 535.713 416.063 519.099 416.11 502.486 C 416.112 501.43 416.115 500.405 416.118 499.38 C 416.131 494.231 416.145 489.083 416.161 483.933 C 416.28 440.289 416.392 396.978 416.499 353.5 C 390.836 353.5 366.413 353.5 341.5 353.5 C 341.5 471.303 341.5 585.152 341.5 699.493 Z" style="fill: none;"/>
  <path d="M 417 352.5 L 417.501 352.5 L 417.5 353.001 C 417.393 396.646 417.28 440.292 417.161 483.937 C 417.145 489.085 417.131 494.234 417.118 499.382 C 417.115 500.407 417.112 501.433 417.11 502.488 C 417.063 519.101 417.023 535.715 416.98 552.329 C 416.941 569.366 416.895 586.403 416.845 603.44 C 416.816 613.96 416.79 624.479 416.764 634.999 C 416.749 642.205 416.73 649.412 416.708 656.618 C 416.692 660.78 416.681 664.941 416.674 669.104 C 416.668 672.91 416.658 676.717 416.643 680.524 C 416.639 681.904 416.636 683.285 416.635 684.665 C 416.634 686.537 416.623 688.406 416.614 690.276 C 416.612 691.317 416.608 692.382 416.605 693.454 C 416.539 694.74 416.504 695.421 416.351 696.155 C 416.199 696.882 415.933 697.662 415.419 699.162 L 415.305 699.495 L 414.953 699.5 C 390.551 699.83 366.149 700.16 341.007 700.5 L 340.5 700.507 C 340.5 585.997 340.5 470.98 340.5 353 L 340.5 352.5 C 365.58 352.5 391.16 352.5 417 352.5 Z M 341.5 699.493 C 366.459 699.156 390.185 698.835 414.587 698.505 C 415.024 697.227 415.233 696.618 415.372 695.952 C 415.509 695.293 415.54 694.7 415.606 693.414 C 415.609 692.347 415.612 691.314 415.614 690.273 C 415.623 688.403 415.634 686.533 415.635 684.665 C 415.636 683.283 415.639 681.902 415.643 680.521 C 415.658 676.715 415.668 672.908 415.674 669.102 C 415.681 664.939 415.692 660.777 415.708 656.614 C 415.73 649.408 415.749 642.203 415.764 634.997 C 415.79 624.477 415.816 613.958 415.845 603.438 C 415.895 586.401 415.941 569.364 415.98 552.327 C 416.023 535.713 416.063 519.099 416.11 502.486 C 416.112 501.43 416.115 500.405 416.118 499.38 C 416.131 494.231 416.145 489.083 416.161 483.933 C 416.28 440.289 416.392 396.978 416.499 353.5 C 390.836 353.5 366.413 353.5 341.5 353.5 C 341.5 471.303 341.5 585.152 341.5 699.493 Z" style="fill: none;"/>
  <path d="M0 0 C34.65 0 69.3 0 105 0 C105 15.84 105 31.68 105 48 C70.35 48 35.7 48 0 48 C0 32.16 0 16.32 0 0 Z " transform="matrix(1, 0, 0, 1, 461, 360.99999999999994)" style=""/>
</svg>